<svg width="26" height="16" viewBox="0 0 26 16" fill="none" xmlns="http://www.w3.org/2000/svg">
<path d="M12.9593 5.9979C13.198 5.2251 14.5378 1.69989 18.4511 1.69989C20.7164 1.69989 23.1633 2.77008 23.1633 5.15196C23.1633 7.84779 19.4623 10.9963 12.9593 13.866C6.45619 10.9963 2.75517 7.84779 2.75517 5.15196C2.75517 2.748 5.17252 1.69851 7.42558 1.69851C11.4286 1.69851 12.6756 5.23545 12.9593 5.9979ZM0.714355 5.15196C0.714355 7.95888 3.8368 11.6939 12.9593 15.4999C22.0817 11.6939 25.2042 7.95888 25.2042 5.15196C25.2042 -0.341817 15.3593 -1.07736 12.9593 2.57343C10.5735 -1.05735 0.714355 -0.372867 0.714355 5.15196Z" fill="#2F3035"/>
</svg>
